<?xml version="1.0" encoding="UTF-8" standalone="no"?>
<!-- Created with Inkscape (http://www.inkscape.org/) -->

<svg
   width="50.885422mm"
   height="59.95895mm"
   viewBox="0 0 50.885422 59.95895"
   version="1.1"
   id="svg1"
   xml:space="preserve"
   inkscape:version="1.4.2 (f4327f4, 2025-05-13)"
   sodipodi:docname="redpanda.svg"
   xmlns:inkscape="http://www.inkscape.org/namespaces/inkscape"
   xmlns:sodipodi="http://sodipodi.sourceforge.net/DTD/sodipodi-0.dtd"
   xmlns="http://www.w3.org/2000/svg"
   xmlns:svg="http://www.w3.org/2000/svg"><sodipodi:namedview
     id="namedview1"
     pagecolor="#ffffff"
     bordercolor="#000000"
     borderopacity="0.25"
     inkscape:showpageshadow="2"
     inkscape:pageopacity="0.0"
     inkscape:pagecheckerboard="0"
     inkscape:deskcolor="#d1d1d1"
     inkscape:document-units="mm"
     inkscape:zoom="2.1080657"
     inkscape:cx="79.69391"
     inkscape:cy="84.674779"
     inkscape:window-width="1920"
     inkscape:window-height="1094"
     inkscape:window-x="-11"
     inkscape:window-y="-11"
     inkscape:window-maximized="1"
     inkscape:current-layer="layer1" /><defs
     id="defs1" /><g
     inkscape:label="Layer 1"
     inkscape:groupmode="layer"
     id="layer1"
     transform="translate(-81.764627,-62.221774)"><path
       style="fill:#402000;fill-opacity:1"
       d="m 102.52573,121.91477 c -1.24864,-0.2524 -1.65018,-0.45837 -1.91244,-0.98094 -0.18257,-0.3638 -0.26701,-0.86982 -0.18762,-1.12448 0.16112,-0.5169 0.001,-0.54303 -3.247943,-0.5303 -1.4153,0.006 -1.93875,-0.0899 -2.04749,-0.37325 -0.0813,-0.21187 -0.0301,-0.30902 0.11546,-0.21905 0.33223,0.20532 0.33062,-0.14705 -0.003,-0.66334 -0.17101,-0.26461 -0.25783,-0.28665 -0.26053,-0.0661 -0.003,0.24006 -0.60255,0.32235 -2.18687,0.30013 -2.473044,-0.0347 -5.101804,-0.55432 -6.555204,-1.29579 -0.88404,-0.45101 -3.18734,-2.58716 -2.93367,-2.7208 0.0562,-0.0296 -0.27118,-0.64273 -0.72761,-1.36245 -0.86823,-1.36905 -1.04272,-1.89691 -0.52032,-1.57405 0.21649,0.1338 0.25061,0.0391 0.1135,-0.31512 -0.23649,-0.61091 -0.49407,-3.29237 -0.27103,-2.82153 0.31922,0.67391 0.57167,0.29222 0.71311,-1.07814 0.08,-0.77488 0.38212,-1.87621 0.67144,-2.4474 0.28932,-0.57118 0.91536,-1.84727 1.39119,-2.83575 0.60321,-1.25308 0.97928,-1.75342 1.24214,-1.65255 0.23019,0.0883 0.43098,-0.0618 0.51565,-0.385596 0.17152,-0.65587 0.2641,-0.65615 1.33372,-0.004 0.48988,0.298686 0.8599,0.398176 0.8599,0.2312 0,-0.20289 0.10178,-0.20953 0.33073,-0.0216 0.1819,0.149326 0.86651,0.556796 1.52135,0.905476 0.65484,0.34868 1.48828,0.82803 1.852084,1.06522 0.63052,0.41108 0.69859,0.39977 1.45521,-0.24176 0.43656,-0.37015 0.59367,-0.60682 0.34913,-0.52594 -0.34975,0.11568 -0.30415,-0.0599 0.21374,-0.8231 0.4014,-0.591476 0.60217,-1.179296 0.51438,-1.505986 -0.0792,-0.29471 -0.14939,-0.77396 -0.15601,-1.065 -0.0119,-0.52517 -0.015,-0.52523 -0.4053,-0.009 -0.36705,0.48548 -0.38297,0.45902 -0.23874,-0.39688 0.085,-0.50437 0.21371,-1.20573 0.28604,-1.55857 0.1099,-0.53617 0.0686,-0.58932 -0.25151,-0.32364 -0.28907,0.2399 -0.22737,-0.25171 0.25157,-2.00432 0.63437,-2.32139 0.90287,-3.17973 1.30578,-4.17427 0.18803,-0.46414 0.16144,-0.48614 -0.21638,-0.17904 -0.39038,0.31732 -0.40234,0.27486 -0.12763,-0.45292 0.36531,-0.96782 0.172,-1.23589 -0.59515,-0.82532 -0.55739,0.2983 -0.56065,0.29017 -0.14058,-0.35094 0.25621,-0.39103 0.32642,-0.72036 0.17368,-0.81476 -0.141,-0.0871 -0.31666,-0.009 -0.39036,0.17394 -0.0783,0.19415 -0.14269,0.13258 -0.15489,-0.14804 -0.0115,-0.26423 0.11099,-0.72684 0.27218,-1.02802 0.26843,-0.50158 0.23566,-0.5332 -0.38983,-0.37621 -0.57338,0.14391 -0.65622,0.0966 -0.51658,-0.2949 0.0915,-0.25646 0.28147,-0.61512 0.42222,-0.79702 0.14964,-0.19339 0.15456,-0.33073 0.0118,-0.33073 -0.13424,0 -0.40441,0.14883 -0.60038,0.33073 -0.28807,0.26738 -0.31601,0.26003 -0.14589,-0.0384 0.16373,-0.28718 0.0549,-0.33936 -0.49035,-0.23513 -0.38543,0.0737 -0.70078,0.0314 -0.70078,-0.0939 0,-0.12534 0.12562,-0.22789 0.27914,-0.22789 0.4079,0 1.55009,-2.73403 1.71455,-4.10403 0.11422,-0.95152 0.0685,-1.15011 -0.23791,-1.03254 -0.20864,0.0801 -0.44807,0.0343 -0.53208,-0.10158 -0.084,-0.13592 -0.46001,-0.1884 -0.83557,-0.1166 -0.473634,0.0905 -0.842754,-0.0411 -1.204784,-0.42971 -0.46739,-0.50169 -0.48236,-0.62273 -0.1432,-1.1582 0.72087,-1.13813 0.77281,-2.16651 0.13792,-2.7307 -0.56542,-0.50247 -1.52006,-2.40174 -2.20186,-4.38069 -0.24171,-0.70158 -0.25989,-1.07727 -0.0617,-1.27544 0.19818,-0.19818 0.18281,-0.28093 -0.0522,-0.28093 -0.18321,0 -0.25489,-0.12656 -0.15929,-0.28125 0.0956,-0.15469 -0.0226,-0.49835 -0.26277,-0.76369 -0.40848,-0.45137 -0.39737,-0.51419 0.17252,-0.97552 0.33501,-0.27119 0.60912,-0.66722 0.60912,-0.88005 0,-0.21668 0.40751,-0.50061 0.92604,-0.6452 0.50932,-0.14202 1.01092,-0.3846 1.11466,-0.53907 0.10374,-0.15446 1.234844,-0.31949 2.513544,-0.36673 2.43607,-0.09 4.81571,0.30466 7.018553,1.164 1.19946,0.46792 1.32801,0.4695 2.95384,0.0363 0.93489,-0.24911 2.07424,-0.45293 2.53189,-0.45293 0.54296,0 0.76893,-0.10218 0.65034,-0.29407 -0.12999,-0.21032 0.216,-0.23936 1.21495,-0.10197 1.26471,0.17394 1.37985,0.14819 1.2184,-0.27253 -0.14384,-0.37486 -0.10693,-0.40539 0.19111,-0.15804 0.42317,0.3512 1.31033,0.11195 1.06383,-0.2869 -0.0898,-0.14536 0.16687,-0.0479 0.57046,0.21651 0.40474,0.2652 1.32724,0.51056 2.0571,0.54715 0.72781,0.0365 2.20095,0.32687 3.27364,0.64532 l 1.95036,0.579 0.65738,-0.61757 c 0.36155,-0.33967 1.0434,-0.7605 1.51522,-0.93519 3.27591,-1.2129 4.04733,-1.42632 4.54437,-1.25722 0.42292,0.14388 0.2718,0.22799 -0.66698,0.37123 -0.66759,0.10186 -1.91775,0.52191 -2.77813,0.93344 -0.86038,0.41153 -1.65153,0.72252 -1.75811,0.69109 -0.47937,-0.14138 -0.53071,1.39914 -0.0725,2.17383 0.26308,0.44474 0.65756,1.15584 0.87662,1.58021 l 0.3983,0.77159 0.47458,-0.58608 c 0.26102,-0.32234 0.41185,-0.74955 0.33518,-0.94935 -0.4126,-1.07521 1.62377,-2.40428 3.22386,-2.1041 0.64996,0.12193 0.89914,0.28996 0.8027,0.54128 -0.0896,0.23348 0.0473,0.36445 0.38101,0.36445 0.32518,0 0.52086,0.17892 0.52086,0.47625 0,0.26194 0.13191,0.60816 0.29314,0.76939 0.21447,0.21447 0.1977,0.56597 -0.0625,1.30969 -0.19559,0.5591 -0.3733,1.13561 -0.39491,1.28113 -0.0216,0.14552 -0.0712,0.38364 -0.11011,0.52916 -0.0389,0.14552 -0.0824,0.44318 -0.0967,0.66146 -0.0155,0.23775 -0.39715,0.46248 -0.95189,0.56048 -0.50932,0.09 -0.74745,0.18111 -0.52916,0.20249 0.32764,0.0321 0.33365,0.0789 0.0344,0.26851 -0.29268,0.1854 -0.2672,0.28497 0.13229,0.51706 0.37165,0.21593 0.39601,0.29092 0.0979,0.30138 -0.27373,0.01 -0.20036,0.16503 0.23649,0.50091 0.34835,0.26784 0.57255,0.59261 0.49823,0.72172 -0.0743,0.12911 0.0664,0.59193 0.31266,1.02849 0.46816,0.82984 1.20072,1.10093 1.84602,0.68314 0.3148,-0.20381 0.32058,-0.31736 0.0337,-0.66297 -0.19036,-0.22937 -0.27819,-0.41704 -0.19519,-0.41704 0.083,0 0.0303,-0.34592 -0.11704,-0.7687 -0.22268,-0.63878 -0.15073,-1.00007 0.42571,-2.13761 0.38152,-0.7529 0.6429,-1.50831 0.58084,-1.67869 -0.0621,-0.17039 0.0772,-0.52763 0.30959,-0.79388 0.60491,-0.69322 0.84229,-4.1866 0.29684,-4.36842 -0.19194,-0.064 -0.18344,-0.21158 0.0268,-0.46489 0.2223,-0.26786 0.22538,-0.37114 0.011,-0.37114 -0.16334,0 -0.29698,-0.16914 -0.29698,-0.37586 0,-0.20672 -0.35582,-0.454 -0.79072,-0.54952 -0.43489,-0.0955 -0.85864,-0.28357 -0.94165,-0.4179 -0.083,-0.13432 -0.53087,-0.25259 -0.99522,-0.26282 -0.71168,-0.0157 -0.76118,-0.0543 -0.31512,-0.24599 0.72227,-0.31037 1.78616,-0.32144 1.59778,-0.0166 -0.0843,0.13637 0.35517,0.35108 0.97657,0.47713 0.84967,0.17235 1.11054,0.34049 1.05207,0.67808 -0.0428,0.2469 0.056,0.44891 0.21946,0.44891 0.19258,0 0.23584,0.27943 0.12287,0.79375 -0.11462,0.52188 -0.0704,0.79375 0.1291,0.79375 0.19545,0 0.23477,0.21185 0.11049,0.59531 -0.10612,0.32743 -0.21624,0.89297 -0.2447,1.25678 -0.0671,0.85805 -0.98014,3.58208 -1.64621,4.91163 -0.50952,1.01705 -0.5104,1.06633 -0.0375,2.09982 0.66657,1.45667 0.62931,1.63812 -0.41379,2.01531 -0.50157,0.18137 -0.85174,0.4272 -0.77813,0.54629 0.0736,0.11909 -0.006,0.21653 -0.17681,0.21653 -0.21561,0 -0.19273,0.1821 0.0748,0.59531 0.212,0.32742 0.46094,0.90225 0.55321,1.27739 0.0923,0.37515 0.43853,0.98416 0.76946,1.35337 0.75814,0.84581 0.85732,1.27185 0.29611,1.27185 -0.40746,0 -0.40746,0.0336 0,0.48385 0.59672,0.65937 0.55191,0.78748 -0.22358,0.63924 -0.38612,-0.0738 -0.66146,-0.003 -0.66146,0.16898 0,0.16248 0.19935,0.29543 0.443,0.29543 0.37658,0 0.35702,0.0915 -0.13044,0.61039 -0.44313,0.47169 -0.50193,0.6819 -0.25878,0.92505 0.24315,0.24315 0.20348,0.39595 -0.17457,0.67238 -0.26907,0.19676 -0.40447,0.49486 -0.30089,0.66245 0.11331,0.18334 0.0127,0.30473 -0.25247,0.30473 -0.28967,0 -0.38677,0.14077 -0.28323,0.41061 0.0867,0.22584 0.0534,0.34622 -0.074,0.2675 -0.12737,-0.0787 -0.3818,0.0379 -0.5654,0.25911 -0.27446,0.33071 -0.24801,0.46498 0.14877,0.75511 0.26543,0.19409 0.51055,0.57732 0.54471,0.85163 0.13159,1.0566 0.37394,1.77763 0.89341,2.65807 0.61919,1.04945 0.66665,1.25805 0.22395,0.98444 -0.17332,-0.10711 -0.0543,0.22734 0.26458,0.74322 0.64569,1.04476 0.73236,1.39797 0.27343,1.11434 -0.20784,-0.12845 -0.25439,-0.0272 -0.14484,0.31511 0.85907,2.68451 1.24486,4.42138 1.24486,5.604526 0,1.19551 0.10955,1.50897 0.7276,2.08176 0.40018,0.37087 0.73259,0.75214 0.73869,0.84726 0.006,0.0951 0.21836,0.56153 0.47169,1.03646 0.48588,0.91091 1.03536,3.30765 0.71259,3.10816 -0.10407,-0.0643 -0.33991,0.55645 -0.52409,1.37947 -0.18491,0.82627 -0.74518,2.09593 -1.25107,2.83513 -0.96667,1.4125 -3.1097,3.58768 -3.53464,3.58768 -0.45797,0 -0.26001,0.46514 0.25531,0.5999 0.27857,0.0728 0.70208,0.51067 0.94112,0.97293 0.37071,0.71688 0.384,0.95484 0.0904,1.6182 -0.30856,0.69709 -0.48157,0.78363 -1.66872,0.83471 -0.72847,0.0313 -1.77096,0.0386 -2.31667,0.0161 -0.86045,-0.0355 -0.99218,0.0369 -0.99218,0.5456 0,1.12499 -0.68145,1.6815 -2.47287,2.01952 -1.94076,0.36619 -5.43714,0.19456 -6.23909,-0.30626 -0.63632,-0.39739 -1.07763,-1.53105 -1.07763,-2.76826 v -0.88656 h -1.32291 c -1.26644,0 -1.32298,0.0311 -1.3244,0.72761 -0.003,1.43779 -0.50247,2.61546 -1.2561,2.96119 -1.01258,0.46453 -5.4343,0.58664 -7.33436,0.20256 z m 4.01018,-0.50138 c -0.0845,-0.21107 -0.14716,-0.14837 -0.15985,0.15985 -0.0115,0.27892 0.051,0.43518 0.13896,0.34727 0.0879,-0.0879 0.0973,-0.31613 0.0209,-0.50712 z m -3.2648,-0.42497 c -0.084,-0.32106 -0.32439,-0.58376 -0.53429,-0.58376 -0.37517,0 -0.30495,0.27213 0.25767,0.99859 0.35252,0.45517 0.46142,0.29186 0.27662,-0.41483 z m 2.57735,-0.0823 c -0.23309,-0.5827 -0.25485,-0.58935 -0.27027,-0.0825 -0.009,0.30317 0.0626,0.63059 0.15962,0.7276 0.31601,0.31601 0.36976,0.003 0.11065,-0.64509 z m 3.13395,-0.2589 c 0.0102,-0.0849 -0.16512,-0.15434 -0.38967,-0.15434 -0.24331,0 -0.35021,0.15127 -0.26458,0.37442 0.079,0.20593 0.15205,0.5135 0.16227,0.6835 0.0165,0.27425 0.44485,-0.51248 0.49198,-0.90358 z m 7.08111,0.0932 c -0.0671,-0.25743 -0.12638,-0.11087 -0.13177,0.32569 -0.005,0.43656 0.0495,0.64719 0.12197,0.46806 0.0725,-0.17913 0.0769,-0.53632 0.01,-0.79375 z m 2.71671,-0.45248 c -0.008,-0.40174 -0.11182,-0.31103 -0.39687,0.34553 -0.48696,1.12161 -0.48035,1.37269 0.0188,0.7128 0.21365,-0.28247 0.3838,-0.75872 0.3781,-1.05833 z m -0.94702,0.76443 c 0.0904,-0.23546 0.046,-0.34166 -0.10399,-0.24897 -0.14385,0.0889 -0.26155,0.27369 -0.26155,0.41062 0,0.38058 0.18964,0.29672 0.36554,-0.16165 z m 3.8492,-0.88716 c -0.0138,-0.31423 -0.0767,-0.28686 -0.24599,0.10715 -0.15838,0.36857 -0.23868,0.40872 -0.26458,0.13229 -0.0259,-0.27642 -0.10621,-0.23627 -0.26459,0.1323 -0.37516,0.87306 -0.29424,1.0349 0.26459,0.52916 0.29104,-0.26339 0.52079,-0.66879 0.51057,-0.9009 z m -25.554693,-1.75634 c -0.0862,-0.22456 -0.21342,-0.35154 -0.28277,-0.28219 -0.0694,0.0694 -0.0476,0.25308 0.0483,0.40829 0.26089,0.42213 0.41338,0.34012 0.23447,-0.1261 z m 1.14777,-0.17049 c -0.0845,-0.21107 -0.14715,-0.14837 -0.15985,0.15985 -0.0115,0.27892 0.0511,0.43518 0.13897,0.34727 0.0879,-0.0879 0.0973,-0.31613 0.0209,-0.50712 z m 30.724413,-0.0897 c -0.0815,-0.0815 -0.2294,0.0654 -0.32876,0.32632 -0.14359,0.37709 -0.1132,0.40748 0.14811,0.14812 0.18082,-0.17948 0.26212,-0.39297 0.18065,-0.47444 z m -40.364757,-1.38965 c -0.55612,-0.42809 -0.58594,-0.60061 -0.44498,-2.5738 0.17828,-2.49566 1.06317,-4.54974 2.43042,-5.64172 1.96043,-1.56572 2.1825,-1.85047 2.1825,-2.79855 v -0.9254 l -1.26139,0.65444 c -2.77227,1.4383 -5.97972,6.19811 -5.77822,8.57478 0.10357,1.22161 0.88847,2.24898 2.14482,2.80737 1.10574,0.49145 1.43439,0.44754 0.72685,-0.0971 z m 8.406954,-0.98109 c 0.14009,0.0866 0.46402,0.0355 0.71983,-0.11343 0.44166,-0.2572 0.44176,-0.27126 0.002,-0.2789 -0.25466,-0.004 -0.46302,-0.13414 -0.46302,-0.28825 0,-0.15411 -0.11906,-0.20661 -0.26458,-0.11667 -0.14552,0.0899 -0.26458,0.0436 -0.26458,-0.10305 0,-0.14661 -0.26789,-0.56082 -0.59532,-0.92047 -1.12949,-1.24065 -1.52135,-1.76152 -1.52135,-2.02222 0,-0.14385 -0.0893,-0.26073 -0.19844,-0.25972 -0.10914,0.001 -0.22266,0.5368 -0.25226,1.19063 -0.0296,0.65383 0.0597,1.18878 0.19844,1.18878 0.13874,0 0.25226,0.23813 0.25226,0.52917 0,0.29693 0.17639,0.52917 0.40192,0.52917 0.30047,0 0.35844,0.17322 0.22966,0.68631 l -0.17225,0.68631 0.83644,-0.43254 c 0.46004,-0.2379 0.95106,-0.3617 1.09116,-0.27512 z m -11.911934,-8.47017 c 0.2497,-0.65677 0.79375,-0.91809 0.79375,-0.38126 0,0.63038 0.53078,-0.10187 0.55006,-0.75884 0.0115,-0.39159 0.0809,-0.56316 0.15434,-0.38126 0.22359,0.55412 0.61852,0.36913 0.61852,-0.28972 0,-0.34125 0.23812,-0.83595 0.52916,-1.09934 0.29105,-0.26339 0.52917,-0.38245 0.52917,-0.26458 0,0.11787 0.20836,0.0311 0.46302,-0.19275 0.83855,-0.73719 2.67573,-1.52704 3.55189,-1.52704 0.776344,0 0.820814,-0.0402 0.45234,-0.40864 -0.55086,-0.55088 -4.04779,-1.95878 -4.15786,-1.67401 -0.0481,0.12448 -0.31778,0.10308 -0.59924,-0.0476 -0.39095,-0.20923 -0.54722,-0.18145 -0.66201,0.1177 -0.0827,0.21536 -0.28932,0.33821 -0.45927,0.273 -0.31198,-0.11972 -1.49929,2.14554 -1.49929,2.86048 0,0.21148 -0.22945,0.59215 -0.50989,0.84595 -0.63691,0.5764 -0.9542,2.30197 -0.55904,3.04034 0.37907,0.70831 0.49865,0.69159 0.80435,-0.11248 z m 31.728007,-5.3661 c 0.77235,-1.68697 0.78032,-1.73717 0.15615,-0.98391 -0.93703,1.13081 -1.46255,2.8835 -1.42229,4.7435 l 0.0348,1.60651 0.20875,-1.79423 c 0.12301,-1.05729 0.54303,-2.52435 1.02262,-3.57187 z m -6.69666,3.09832 c -0.5341,-1.27109 -1.88425,-3.06888 -2.58734,-3.44517 -0.37857,-0.20261 -0.14404,0.19487 0.65177,1.10461 0.68372,0.7816 1.45211,1.92778 1.70753,2.54707 0.25543,0.61929 0.497,1.0303 0.53683,0.91335 0.0398,-0.11695 -0.0991,-0.62089 -0.30879,-1.11986 z m 0.24908,-1.01493 c -0.5812,-1.12391 -0.76973,-1.03668 -0.22559,0.10439 0.242,0.50749 0.48698,0.87574 0.54439,0.81833 0.0574,-0.0574 -0.0861,-0.47263 -0.3188,-0.92272 z m -17.078343,-0.30478 c 0,-0.13693 -0.0992,-0.24897 -0.22048,-0.24897 -0.121274,0 -0.220494,0.17336 -0.220494,0.38524 0,0.21188 0.0992,0.32391 0.220494,0.24896 0.12127,-0.0749 0.22048,-0.2483 0.22048,-0.38523 z m 7.14375,-10.964606 c 0.49366,-0.50932 0.838033,-0.92604 0.765273,-0.92604 -0.0728,0 -0.536193,0.41672 -1.029853,0.92604 -0.49365,0.50933 -0.83802,0.92605 -0.76526,0.92605 0.0728,0 0.53619,-0.41672 1.02984,-0.92605 z m 14.994483,0.14866 c 0.60712,-0.27566 1.30542,-0.80882 1.55178,-1.18482 0.24637,-0.37599 0.5737,-0.68363 0.7274,-0.68363 0.15371,0 0.48638,-0.18725 0.73926,-0.41611 0.41835,-0.3786 0.53949,-0.37744 1.34375,0.0128 0.75038,0.3641 0.80634,0.36701 0.37037,0.0192 -0.28248,-0.22533 -0.6099,-0.40969 -0.72761,-0.40969 -0.1177,0 -0.21401,-0.11906 -0.21401,-0.26458 0,-0.14552 0.38695,-0.2808 0.8599,-0.30062 0.62183,-0.026 0.69508,-0.0678 0.26458,-0.15069 -0.70431,-0.13566 -0.69991,-0.10911 -0.21194,-1.27698 0.21086,-0.50465 0.27039,-0.91754 0.13229,-0.91754 -0.36843,0 -0.30627,-0.47139 0.0796,-0.60409 0.1819,-0.0625 0.12162,-0.0822 -0.13395,-0.0437 -0.47046,0.0709 -2.57514,-1.86756 -3.97852,-3.66422 -0.95473,-1.22227 -2.28266,-1.69129 -3.43596,-1.21358 -0.46012,0.19059 -1.96863,1.39276 -3.35223,2.67149 -1.9213,1.77566 -2.70451,2.33433 -3.31505,2.3646 -0.79862,0.0396 -0.79869,0.0397 -0.0718,0.14987 1.13042,0.17124 0.86248,0.50198 -0.66146,0.81649 -1.34127,0.27681 -1.3479,0.2824 -0.19265,0.16235 0.76793,-0.0798 1.37207,0.004 1.68691,0.23433 0.46665,0.34122 0.45351,0.38847 -0.27037,0.97174 -0.67972,0.54768 -0.6974,0.5975 -0.16582,0.46708 1.08346,-0.26582 0.90263,0.31082 -0.27038,0.86221 -0.6344,0.2982 -1.56229,0.90931 -2.06197,1.35803 l -0.90853,0.81584 0.92604,-0.65166 c 0.96374,-0.67818 3.02706,-1.78634 3.32606,-1.78634 0.0947,0 -0.10893,0.23196 -0.45248,0.51546 l -0.62462,0.51546 0.62239,-0.15653 c 0.34232,-0.0861 0.69951,-0.0405 0.79375,0.10131 0.0943,0.14181 1.06433,0.69063 2.15573,1.21961 2.29644,1.11302 3.76944,1.23876 5.46948,0.46689 z m -5.41339,-1.29622 c -1.00944,-0.53831 -0.86911,-0.83681 0.39338,-0.83681 0.48975,0 1.31627,-0.17792 1.83671,-0.39538 l 0.94627,-0.39537 -0.81424,-0.92737 c -0.80026,-0.91145 -0.84935,-1.38156 -0.22807,-2.18448 0.33303,-0.43041 3.41458,-0.44102 3.84236,-0.0132 0.55285,0.55284 0.37112,1.71858 -0.35723,2.2915 -0.37111,0.29191 -0.81759,0.58915 -0.99219,0.66052 -0.49023,0.20041 0.30928,0.67162 1.46849,0.8655 0.5457,0.0913 0.99218,0.25859 0.99218,0.37184 0,0.11324 -0.55699,0.39568 -1.23775,0.62764 -1.67623,0.57115 -4.72102,0.53765 -5.84991,-0.0644 z m -4.92758,-1.56316 c -0.14939,-0.1494 -2.51841,0.84297 -3.11146,1.30337 -0.34951,0.27133 0.20602,0.10858 1.28411,-0.37619 1.04506,-0.46993 1.86737,-0.88716 1.82735,-0.92718 z m 16.51316,1.68479 c 0,-0.0549 -0.20836,-0.2633 -0.46302,-0.46302 -0.41965,-0.32911 -0.429,-0.31975 -0.0999,0.0999 0.34565,0.44073 0.56292,0.58089 0.56292,0.36313 z m 1.98437,-1.99415 -1.05833,-0.46729 0.99219,-0.18653 c 0.59917,-0.11264 0.99219,-0.33699 0.99219,-0.56638 0,-0.20891 0.30897,-0.45739 0.6866,-0.55217 0.4498,-0.11289 0.5759,-0.24073 0.36564,-0.37068 -0.23216,-0.14349 -0.15478,-0.36454 0.2797,-0.79902 0.54826,-0.54826 0.56252,-0.62854 0.16352,-0.92029 -0.59546,-0.43542 -0.54903,-0.85159 0.11867,-1.06351 0.40442,-0.12836 0.47648,-0.25572 0.26458,-0.46762 -0.53115,-0.53115 -0.3022,-0.78289 0.55593,-0.61127 l 0.84715,0.16943 -0.76436,-0.79781 c -0.42039,-0.4388 -0.62675,-0.79782 -0.45857,-0.79782 0.1772,0 0.23433,-0.1862 0.13586,-0.44281 -0.12873,-0.33546 -0.0626,-0.40161 0.27288,-0.27288 0.56743,0.21774 0.56377,-0.035 -0.01,-0.66869 -0.37062,-0.40953 -0.38759,-0.54012 -0.0938,-0.72172 0.26789,-0.16557 0.14579,-0.33183 -0.48219,-0.65657 -0.87385,-0.45189 -0.87387,-1.08554 -2e-5,-0.85702 0.90591,0.2369 0.52053,-0.33111 -0.81886,-1.20692 -0.72499,-0.47406 -1.32116,-1.04052 -1.32483,-1.2588 -0.007,-0.43872 -2.3677,-1.32292 -3.53147,-1.32292 -0.38758,0 -0.7047,-0.11612 -0.7047,-0.25804 0,-0.16296 -0.2337,-0.16918 -0.63425,-0.0169 -0.34884,0.13263 -0.69583,0.17957 -0.77109,0.10431 -0.21933,-0.21933 -1.31999,0.44353 -1.98724,1.19677 -0.33794,0.3815 -0.52884,0.51505 -0.4242,0.29677 0.14524,-0.30299 0.11353,-0.32622 -0.13403,-0.0982 -0.57143,0.52634 -0.65426,2.3871 -0.16347,3.67221 0.24963,0.65366 0.51207,1.18848 0.58319,1.18848 0.19171,0 0.77824,-0.62158 0.87383,-0.92605 0.48622,-1.54863 1.4603,-2.51354 2.53742,-2.51354 0.49327,0 0.4869,0.24197 -0.0211,0.80336 -0.37061,0.40953 -0.33394,0.47782 0.42545,0.79238 0.89617,0.3712 2.60559,2.36471 3.45436,4.02844 0.75497,1.47986 0.58108,2.32314 -0.56382,2.73427 -0.88929,0.31935 -0.89716,0.33334 -0.19844,0.35267 0.881,0.0244 0.94232,0.41577 0.133,0.84891 -0.36926,0.19761 -0.46891,0.36012 -0.26294,0.42878 0.53335,0.17778 0.0925,0.59453 -0.62889,0.59453 -0.3736,0 -0.5903,0.11514 -0.49794,0.26458 0.0899,0.14552 -0.11139,0.27645 -0.4474,0.29096 -0.60271,0.026 -0.60203,0.0292 0.0505,0.23821 0.3638,0.11651 0.48286,0.23097 0.26458,0.25437 -0.21828,0.0234 0.25797,0.26117 1.05833,0.5284 1.8553,0.61944 2.28844,0.63515 0.92604,0.0336 z m -19.71145,-0.28721 c 0,-0.14552 -0.23813,-0.26458 -0.52917,-0.26458 -0.71122,0 -0.67173,-0.48321 0.0661,-0.80934 0.51902,-0.2294 0.48808,-0.2467 -0.24151,-0.13499 -0.54177,0.0829 -0.94967,-0.008 -1.15688,-0.25753 -0.54841,-0.6608 0.15452,-1.14397 1.81724,-1.24911 l 1.49938,-0.0948 -1.64861,-0.05 c -1.54533,-0.0469 -1.65963,-0.094 -1.82465,-0.75143 -0.36153,-1.44047 1.14286,-4.07413 3.01023,-5.26987 0.68271,-0.43716 1.12448,-0.9197 1.12448,-1.22824 0,-0.97976 0.50612,-1.53202 1.39838,-1.52585 1.05359,0.007 1.78479,0.58708 2.58473,2.04953 0.33976,0.62115 0.74105,1.08827 0.89175,1.03804 0.1507,-0.0502 0.55279,-0.63309 0.89354,-1.29523 0.54758,-1.06404 0.58548,-1.33041 0.32627,-2.29304 -0.21876,-0.81242 -0.50929,-1.19854 -1.14345,-1.5197 -0.4676,-0.2368 -1.079,-0.62455 -1.35868,-0.86166 -0.27967,-0.23711 -0.42147,-0.28229 -0.31511,-0.10039 0.24833,0.42469 0.25655,0.42574 -1.55763,-0.19843 -1.65402,-0.56907 -2.3587,-0.67748 -1.7198,-0.26459 0.28357,0.18326 -0.008,0.25764 -1.02049,0.26053 -1.12165,0.003 -1.38697,0.0833 -1.27167,0.38375 0.11126,0.28995 -0.19948,0.42283 -1.31455,0.56215 -0.96567,0.12065 -1.37135,0.27134 -1.19777,0.44492 0.31853,0.31853 -1.089373,1.80335 -2.306933,2.43297 -1.04082,0.53823 -1.05914,0.79094 -0.0426,0.58763 0.89844,-0.17969 1.41194,0.31489 0.55863,0.53804 -0.38374,0.10035 -0.51749,0.2913 -0.41975,0.59925 0.0832,0.26226 -0.0802,0.65441 -0.38946,0.93425 -0.62547,0.56605 -0.70476,1.05199 -0.13603,0.83375 0.53988,-0.20717 0.51814,0.58147 -0.0328,1.19026 -0.40739,0.45016 -0.3868,0.4625 0.39688,0.23775 0.92352,-0.26487 1.09635,0.0949 0.50242,1.04595 -0.27156,0.43485 -0.24361,0.57788 0.17238,0.88206 0.34826,0.25465 0.40425,0.42007 0.18752,0.55401 -0.42008,0.25963 -0.11743,0.68357 0.48799,0.68357 0.51634,0 0.995983,1.31956 0.67086,1.84562 -0.0936,0.15148 0.0728,0.27104 0.377273,0.27104 0.29963,0 0.54478,0.17069 0.54478,0.3793 0,0.33132 0.39472,0.47263 1.78594,0.63939 0.1819,0.0218 0.33073,-0.0794 0.33073,-0.22494 z m 22.35729,-0.14184 c -0.43656,-0.1999 -0.97235,-0.35977 -1.19063,-0.35526 -0.21828,0.005 0.0198,0.16867 0.52917,0.36481 1.20801,0.4652 1.68329,0.45834 0.66146,-0.01 z m -25.868533,-0.54718 c -0.0879,-0.0879 -0.31613,-0.0973 -0.50712,-0.0209 -0.21107,0.0845 -0.14837,0.14715 0.15985,0.15985 0.27892,0.0115 0.43518,-0.0511 0.34727,-0.13897 z m 21.569053,-2.39662 c -0.1819,-0.0734 -0.47956,-0.0734 -0.66146,0 -0.1819,0.0734 -0.0331,0.13345 0.33073,0.13345 0.3638,0 0.51263,-0.0601 0.33073,-0.13345 z m -12.46473,-2.72639 c 0.71234,-0.59344 0.55894,-0.67752 -0.42126,-0.23091 -0.50611,0.23059 -0.83861,0.23201 -1.33536,0.006 -0.74753,-0.3406 -0.91327,0.0435 -0.19844,0.45983 0.7005,0.408 1.26503,0.34027 1.95506,-0.23459 z m 9.42202,-0.19118 c -0.25466,-0.0665 -0.67138,-0.0665 -0.92604,0 -0.25466,0.0666 -0.0463,0.121 0.46302,0.121 0.50932,0 0.71768,-0.0545 0.46302,-0.121 z m -11.62941,-1.1285 c -0.17762,-0.28443 -0.36003,-0.48006 -0.40534,-0.43475 -0.15684,0.15684 0.25224,0.95188 0.48978,0.95188 0.13118,0 0.0932,-0.23271 -0.0844,-0.51713 z m 12.47071,-0.62296 c -0.0179,-0.5589 -0.0268,-0.56071 -0.24599,-0.0505 -0.31294,0.72827 -0.31294,0.98716 0,0.79375 0.14552,-0.0899 0.25622,-0.42438 0.24599,-0.74321 z m -10.88995,-0.3978 c 0.0585,-0.17551 -0.13858,-0.31419 -0.44649,-0.31419 -0.54962,0 -0.71435,0.27783 -0.36931,0.62287 0.24513,0.24513 0.68691,0.078 0.8158,-0.30868 z m 9.85021,-0.0496 c 0,-0.14552 -0.17859,-0.26458 -0.39687,-0.26458 -0.21828,0 -0.39688,0.11906 -0.39688,0.26458 0,0.14552 0.1786,0.26458 0.39688,0.26458 0.21828,0 0.39687,-0.11906 0.39687,-0.26458 z m -0.5422,-1.4395 c 0.17399,-0.20965 0.63505,-0.42993 1.02459,-0.48953 0.6677,-0.10215 0.66136,-0.11062 -0.11065,-0.14799 -0.52109,-0.0252 -0.99304,0.15279 -1.29778,0.48952 -0.26339,0.29104 -0.35595,0.52917 -0.20569,0.52917 0.15025,0 0.41554,-0.17153 0.58953,-0.38117 z m -23.806873,-2.79005 c 1.02394,-0.52238 1.58893,-1.06212 1.11182,-1.06212 -0.13736,0 0.15327,-0.43998 0.64584,-0.97774 1.03205,-1.12674 1.10431,-1.40351 0.36641,-1.40351 -0.29104,0 -0.52916,-0.11906 -0.52916,-0.26458 0,-0.38944 -0.92223,-1.24406 -1.56138,-1.44692 -0.55282,-0.17546 -0.80098,-1.19891 -0.29071,-1.19891 0.47874,0 0.27588,-0.4645 -0.26458,-0.60583 -0.705,-0.18436 -0.67153,-0.67692 0.0661,-0.97343 l 0.59531,-0.23929 -0.5797,-0.0168 c -0.68177,-0.0197 -0.992564,-0.41078 -0.69674,-0.87666 0.1155,-0.1819 0.21183,-0.44628 0.21405,-0.5875 0.002,-0.14123 0.27124,-0.38998 0.5978,-0.55279 0.32656,-0.1628 0.5086,-0.38115 0.40454,-0.48522 -0.73467,-0.73467 2.92889,-0.54331 4.93039,0.25753 0.74858,0.29952 1.33725,0.7894 1.767383,1.47078 0.73606,1.16598 0.95858,1.23058 1.69665,0.49251 0.63784,-0.63784 0.66182,-1.09269 0.11348,-2.15306 -0.58177,-1.12501 -2.719593,-2.04371 -5.597813,-2.40557 -2.07973,-0.26147 -2.49957,-0.23703 -4.04067,0.23523 -1.088824,0.33366 -1.691394,0.65341 -1.642374,0.87151 0.0513,0.22832 -0.10484,0.29684 -0.46302,0.20317 -0.35015,-0.0916 -0.54044,-0.0136 -0.54044,0.22147 0,0.19954 -0.25421,0.49885 -0.56491,0.66513 -0.3442,0.18421 -0.45404,0.37085 -0.28114,0.47771 0.45787,0.28298 0.92779,1.72487 0.59798,1.83481 -0.41534,0.13844 -0.3444,0.54047 0.24025,1.36154 0.28675,0.40269 0.45569,0.79783 0.37544,0.87808 -0.0803,0.0803 0.008,0.424 0.19632,0.76388 0.18823,0.33989 0.31079,0.72572 0.27236,0.85741 -0.0384,0.13169 0.33511,0.66747 0.8301,1.19062 0.943914,0.99762 1.079104,1.77297 0.49729,2.85203 -0.68184,1.26458 -0.15365,1.47698 1.533074,0.61649 z"
       id="path1"
       sodipodi:nodetypes="csscssscsssssssssscsssssssscscssssssssssccsssssssssssscccssssssscssssssssssssccsscsssssssscsssssssssscsscscsscssscsccsssssssssscsssssscsssssssssssssssscsssssscscsscssssscsscssssscscsccsscsscsscscssssssssccsccssssscssccsssscsscsssssssssssssscssssscccscssssssssscscccsscssscscsccsssscccsscscccssssccsscssscsssssscsssssssccsscssssscsscsssscssscscsccssscsscsscsssssssssssssccssssssssscsssscsssscssssssssssssssssssscsssscccssccscccsscscssssssscssssssccssssssssssscccccccccscccssccscsccscsscssccsccssssssssssssssssscssssssssccscscssssssscssssssccsscc" /></g></svg>
